# This file uses centimeters as units for non-parametric coordinates.

mtllib newtree.mtl
g default
v 24.802893 0.000000 -3.133335
v 24.214603 0.000000 -6.217255
v 23.244435 0.000000 -9.203124
v 21.907687 0.000000 -12.043855
v 20.225443 0.000000 -14.694646
v 18.224232 0.000000 -17.113695
v 15.935613 0.000000 -19.262850
v 13.395680 0.000000 -21.108219
v 10.644490 0.000000 -22.620697
v 7.725430 0.000000 -23.776434
v 4.684535 0.000000 -24.557203
v 1.569762 0.000000 -24.950689
v -1.569766 0.000000 -24.950688
v -4.684538 0.000000 -24.557200
v -7.725433 0.000000 -23.776430
v -10.644492 0.000000 -22.620691
v -13.395680 0.000000 -21.108212
v -15.935612 0.000000 -19.262843
v -18.224229 0.000000 -17.113687
v -20.225438 0.000000 -14.694639
v -21.907681 0.000000 -12.043847
v -23.244427 0.000000 -9.203117
v -24.214594 0.000000 -6.217249
v -24.802883 0.000000 -3.133330
v -25.000015 0.000000 0.000002
v -24.802881 0.000000 3.133335
v -24.214593 0.000000 6.217253
v -23.244424 0.000000 9.203121
v -21.907677 0.000000 12.043850
v -20.225433 0.000000 14.694640
v -18.224221 0.000000 17.113687
v -15.935604 0.000000 19.262841
v -13.395673 0.000000 21.108209
v -10.644484 0.000000 22.620685
v -7.725425 0.000000 23.776421
v -4.684532 0.000000 24.557190
v -1.569761 0.000000 24.950676
v 1.569766 0.000000 24.950674
v 4.684536 0.000000 24.557187
v 7.725429 0.000000 23.776416
v 10.644486 0.000000 22.620678
v 13.395673 0.000000 21.108200
v 15.935603 0.000000 19.262832
v 18.224218 0.000000 17.113678
v 20.225427 0.000000 14.694631
v 21.907668 0.000000 12.043841
v 23.244412 0.000000 9.203114
v 24.214579 0.000000 6.217247
v 24.802868 0.000000 3.133331
v 25.000000 0.000000 0.000000
v 20.408525 160.000000 -2.578199
v 19.924462 160.000000 -5.115735
v 19.126180 160.000000 -7.572594
v 18.026266 160.000000 -9.910027
v 16.642067 160.000000 -12.091173
v 14.995416 160.000000 -14.081636
v 13.112274 160.000000 -15.850022
v 11.022344 160.000000 -17.368442
v 8.758587 160.000000 -18.612954
v 6.356701 160.000000 -19.563927
v 3.854567 160.000000 -20.206365
v 1.291644 160.000000 -20.530137
v -1.291650 160.000000 -20.530134
v -3.854573 160.000000 -20.206363
v -6.356706 160.000000 -19.563922
v -8.758591 160.000000 -18.612948
v -11.022349 160.000000 -17.368437
v -13.112275 160.000000 -15.850015
v -14.995416 160.000000 -14.081629
v -16.642067 160.000000 -12.091167
v -18.026264 160.000000 -9.910021
v -19.126177 160.000000 -7.572588
v -19.924457 160.000000 -5.115730
v -20.408517 160.000000 -2.578194
v -20.570722 160.000000 0.000001
v -20.408517 160.000000 2.578196
v -19.924456 160.000000 5.115731
v -19.126174 160.000000 7.572588
v -18.026261 160.000000 9.910021
v -16.642062 160.000000 12.091167
v -14.995408 160.000000 14.081627
v -13.112269 160.000000 15.850012
v -11.022341 160.000000 17.368433
v -8.758585 160.000000 18.612942
v -6.356701 160.000000 19.563913
v -3.854567 160.000000 20.206353
v -1.291645 160.000000 20.530124
v 1.291647 160.000000 20.530123
v 3.854568 160.000000 20.206350
v 6.356701 160.000000 19.563910
v 8.758584 160.000000 18.612935
v 11.022339 160.000000 17.368424
v 13.112265 160.000000 15.850005
v 14.995404 160.000000 14.081620
v 16.642055 160.000000 12.091158
v 18.026251 160.000000 9.910014
v 19.126162 160.000000 7.572582
v 19.924442 160.000000 5.115727
v 20.408502 160.000000 2.578193
v 20.570707 160.000000 -0.000001
v 0.000000 0.000000 0.000000
v -0.000001 160.000000 -0.000001
vt 0.655018 0.136667
vt 0.651341 0.117392
vt 0.645278 0.098730
vt 0.636923 0.080976
vt 0.626409 0.064408
vt 0.613901 0.049289
vt 0.599598 0.035857
vt 0.583723 0.024324
vt 0.566528 0.014871
vt 0.548284 0.007647
vt 0.529278 0.002767
vt 0.509811 0.000308
vt 0.490189 0.000308
vt 0.470722 0.002768
vt 0.451716 0.007647
vt 0.433472 0.014871
vt 0.416277 0.024324
vt 0.400402 0.035857
vt 0.386099 0.049289
vt 0.373591 0.064409
vt 0.363077 0.080976
vt 0.354722 0.098731
vt 0.348659 0.117392
vt 0.344982 0.136667
vt 0.343750 0.156250
vt 0.344982 0.175833
vt 0.348659 0.195108
vt 0.354722 0.213770
vt 0.363077 0.231524
vt 0.373591 0.248092
vt 0.386099 0.263211
vt 0.400402 0.276643
vt 0.416277 0.288176
vt 0.433472 0.297629
vt 0.451716 0.304853
vt 0.470722 0.309732
vt 0.490189 0.312192
vt 0.509811 0.312192
vt 0.529278 0.309732
vt 0.548284 0.304853
vt 0.566528 0.297629
vt 0.583723 0.288176
vt 0.599598 0.276643
vt 0.613901 0.263210
vt 0.626409 0.248091
vt 0.636923 0.231524
vt 0.645278 0.213769
vt 0.651341 0.195108
vt 0.655018 0.175833
vt 0.656250 0.156250
vt 0.375000 0.312500
vt 0.380000 0.312500
vt 0.385000 0.312500
vt 0.390000 0.312500
vt 0.395000 0.312500
vt 0.400000 0.312500
vt 0.405000 0.312500
vt 0.410000 0.312500
vt 0.415000 0.312500
vt 0.420000 0.312500
vt 0.425000 0.312500
vt 0.430000 0.312500
vt 0.435000 0.312500
vt 0.440000 0.312500
vt 0.445000 0.312500
vt 0.450000 0.312500
vt 0.455000 0.312500
vt 0.460000 0.312500
vt 0.465000 0.312500
vt 0.470000 0.312500
vt 0.475000 0.312500
vt 0.480000 0.312500
vt 0.485000 0.312500
vt 0.490000 0.312500
vt 0.495000 0.312500
vt 0.500000 0.312500
vt 0.505000 0.312500
vt 0.510000 0.312500
vt 0.515000 0.312500
vt 0.520000 0.312500
vt 0.525000 0.312500
vt 0.530000 0.312500
vt 0.535000 0.312500
vt 0.540000 0.312500
vt 0.545000 0.312500
vt 0.550000 0.312500
vt 0.555000 0.312500
vt 0.560000 0.312500
vt 0.565000 0.312500
vt 0.570000 0.312500
vt 0.575000 0.312500
vt 0.580000 0.312500
vt 0.585000 0.312500
vt 0.590000 0.312500
vt 0.595000 0.312500
vt 0.600000 0.312500
vt 0.605000 0.312500
vt 0.610000 0.312500
vt 0.615000 0.312500
vt 0.620000 0.312500
vt 0.625000 0.312500
vt 0.375000 0.688440
vt 0.380000 0.688440
vt 0.385000 0.688440
vt 0.390000 0.688440
vt 0.395000 0.688440
vt 0.400000 0.688440
vt 0.405000 0.688440
vt 0.410000 0.688440
vt 0.415000 0.688440
vt 0.420000 0.688440
vt 0.425000 0.688440
vt 0.430000 0.688440
vt 0.435000 0.688440
vt 0.440000 0.688440
vt 0.445000 0.688440
vt 0.450000 0.688440
vt 0.455000 0.688440
vt 0.460000 0.688440
vt 0.465000 0.688440
vt 0.470000 0.688440
vt 0.475000 0.688440
vt 0.480000 0.688440
vt 0.485000 0.688440
vt 0.490000 0.688440
vt 0.495000 0.688440
vt 0.500000 0.688440
vt 0.505000 0.688440
vt 0.510000 0.688440
vt 0.515000 0.688440
vt 0.520000 0.688440
vt 0.525000 0.688440
vt 0.530000 0.688440
vt 0.535000 0.688440
vt 0.540000 0.688440
vt 0.545000 0.688440
vt 0.550000 0.688440
vt 0.555000 0.688440
vt 0.560000 0.688440
vt 0.565000 0.688440
vt 0.570000 0.688440
vt 0.575000 0.688440
vt 0.580000 0.688440
vt 0.585000 0.688440
vt 0.590000 0.688440
vt 0.595000 0.688440
vt 0.600000 0.688440
vt 0.605000 0.688440
vt 0.610000 0.688440
vt 0.615000 0.688440
vt 0.620000 0.688440
vt 0.625000 0.688440
vt 0.655018 0.824167
vt 0.651341 0.804892
vt 0.645278 0.786230
vt 0.636923 0.768476
vt 0.626409 0.751908
vt 0.613901 0.736789
vt 0.599598 0.723357
vt 0.583723 0.711824
vt 0.566528 0.702371
vt 0.548284 0.695147
vt 0.529278 0.690267
vt 0.509811 0.687808
vt 0.490189 0.687808
vt 0.470722 0.690268
vt 0.451716 0.695147
vt 0.433472 0.702371
vt 0.416277 0.711824
vt 0.400402 0.723357
vt 0.386099 0.736789
vt 0.373591 0.751909
vt 0.363077 0.768476
vt 0.354722 0.786231
vt 0.348659 0.804892
vt 0.344982 0.824167
vt 0.343750 0.843750
vt 0.344982 0.863333
vt 0.348659 0.882608
vt 0.354722 0.901270
vt 0.363077 0.919024
vt 0.373591 0.935592
vt 0.386099 0.950711
vt 0.400402 0.964143
vt 0.416277 0.975676
vt 0.433472 0.985129
vt 0.451716 0.992353
vt 0.470722 0.997232
vt 0.490189 0.999692
vt 0.509811 0.999692
vt 0.529278 0.997232
vt 0.548284 0.992353
vt 0.566528 0.985129
vt 0.583723 0.975676
vt 0.599598 0.964143
vt 0.613901 0.950710
vt 0.626409 0.935591
vt 0.636923 0.919024
vt 0.645278 0.901269
vt 0.651341 0.882608
vt 0.655018 0.863333
vt 0.656250 0.843750
vt 0.500000 0.150000
vt 0.500000 0.837500
vn 0.991735 0.027673 -0.125281
vn 0.968212 0.027672 -0.248595
vn 0.968212 0.027672 -0.248595
vn 0.991735 0.027673 -0.125281
vn 0.929420 0.027672 -0.367984
vn 0.929420 0.027672 -0.367984
vn 0.875971 0.027672 -0.481569
vn 0.875971 0.027672 -0.481569
vn 0.808707 0.027672 -0.587560
vn 0.808707 0.027672 -0.587560
vn 0.728689 0.027672 -0.684285
vn 0.728689 0.027672 -0.684285
vn 0.637180 0.027672 -0.770218
vn 0.637180 0.027672 -0.770218
vn 0.535621 0.027672 -0.844005
vn 0.535621 0.027672 -0.844005
vn 0.425616 0.027672 -0.904481
vn 0.425616 0.027672 -0.904481
vn 0.308898 0.027672 -0.950692
vn 0.308898 0.027672 -0.950692
vn 0.187309 0.027672 -0.981911
vn 0.187309 0.027672 -0.981911
vn 0.062766 0.027672 -0.997645
vn 0.062766 0.027672 -0.997645
vn -0.062767 0.027672 -0.997645
vn -0.062767 0.027672 -0.997645
vn -0.187310 0.027672 -0.981911
vn -0.187310 0.027672 -0.981911
vn -0.308899 0.027672 -0.950692
vn -0.308899 0.027672 -0.950692
vn -0.425616 0.027672 -0.904480
vn -0.425616 0.027672 -0.904480
vn -0.535622 0.027672 -0.844004
vn -0.535622 0.027672 -0.844004
vn -0.637180 0.027672 -0.770218
vn -0.637180 0.027672 -0.770218
vn -0.728690 0.027672 -0.684285
vn -0.728690 0.027672 -0.684285
vn -0.808707 0.027672 -0.587560
vn -0.808707 0.027672 -0.587560
vn -0.875971 0.027672 -0.481569
vn -0.875971 0.027672 -0.481569
vn -0.929420 0.027672 -0.367983
vn -0.929420 0.027672 -0.367983
vn -0.968212 0.027672 -0.248594
vn -0.968212 0.027672 -0.248594
vn -0.991735 0.027672 -0.125285
vn -0.991735 0.027672 -0.125285
vn -0.999617 0.027672 0.000000
vn -0.999617 0.027672 0.000000
vn -0.991735 0.027672 0.125285
vn -0.991735 0.027672 0.125285
vn -0.968212 0.027672 0.248595
vn -0.968212 0.027672 0.248595
vn -0.929420 0.027672 0.367984
vn -0.929420 0.027672 0.367984
vn -0.875971 0.027672 0.481570
vn -0.875971 0.027672 0.481570
vn -0.808707 0.027672 0.587561
vn -0.808707 0.027672 0.587561
vn -0.728689 0.027672 0.684285
vn -0.728689 0.027672 0.684285
vn -0.637180 0.027672 0.770218
vn -0.637180 0.027672 0.770218
vn -0.535621 0.027672 0.844005
vn -0.535621 0.027672 0.844005
vn -0.425616 0.027672 0.904481
vn -0.425616 0.027672 0.904481
vn -0.308898 0.027672 0.950692
vn -0.308898 0.027672 0.950692
vn -0.187309 0.027672 0.981911
vn -0.187309 0.027672 0.981911
vn -0.062766 0.027672 0.997645
vn -0.062766 0.027672 0.997644
vn 0.062767 0.027672 0.997645
vn 0.062767 0.027672 0.997644
vn 0.187310 0.027672 0.981911
vn 0.187310 0.027672 0.981911
vn 0.308899 0.027672 0.950692
vn 0.308899 0.027672 0.950692
vn 0.425617 0.027672 0.904480
vn 0.425617 0.027672 0.904480
vn 0.535622 0.027672 0.844005
vn 0.535622 0.027672 0.844005
vn 0.637180 0.027672 0.770218
vn 0.637180 0.027672 0.770218
vn 0.728690 0.027672 0.684285
vn 0.728690 0.027672 0.684285
vn 0.808707 0.027672 0.587560
vn 0.808707 0.027672 0.587560
vn 0.875971 0.027672 0.481569
vn 0.875971 0.027672 0.481569
vn 0.929420 0.027672 0.367984
vn 0.929420 0.027672 0.367983
vn 0.968212 0.027672 0.248595
vn 0.968212 0.027672 0.248595
vn 0.991735 0.027672 0.125285
vn 0.991735 0.027672 0.125285
vn 0.999617 0.027672 0.000004
vn 0.999617 0.027672 0.000004
vn 0.000000 -1.000000 0.000000
vn 0.000000 -1.000000 0.000000
vn 0.000000 -1.000000 0.000000
vn 0.000000 -1.000000 0.000000
vn 0.000000 -1.000000 0.000000
vn 0.000000 -1.000000 0.000000
vn 0.000000 -1.000000 0.000000
vn 0.000000 -1.000000 0.000000
vn 0.000000 -1.000000 0.000000
vn 0.000000 -1.000000 0.000000
vn 0.000000 -1.000000 0.000000
vn 0.000000 -1.000000 0.000000
vn 0.000000 -1.000000 0.000000
vn 0.000000 -1.000000 0.000000
vn 0.000000 -1.000000 0.000000
vn 0.000000 -1.000000 0.000000
vn 0.000000 -1.000000 0.000000
vn 0.000000 -1.000000 0.000000
vn 0.000000 -1.000000 0.000000
vn 0.000000 -1.000000 0.000000
vn 0.000000 -1.000000 0.000000
vn 0.000000 -1.000000 0.000000
vn 0.000000 -1.000000 0.000000
vn 0.000000 -1.000000 0.000000
vn 0.000000 -1.000000 0.000000
vn 0.000000 -1.000000 0.000000
vn 0.000000 -1.000000 0.000000
vn 0.000000 -1.000000 0.000000
vn 0.000000 -1.000000 0.000000
vn 0.000000 -1.000000 0.000000
vn 0.000000 -1.000000 0.000000
vn 0.000000 -1.000000 0.000000
vn 0.000000 -1.000000 0.000000
vn 0.000000 -1.000000 0.000000
vn 0.000000 -1.000000 0.000000
vn 0.000000 -1.000000 0.000000
vn 0.000000 -1.000000 0.000000
vn 0.000000 -1.000000 0.000000
vn 0.000000 -1.000000 0.000000
vn 0.000000 -1.000000 0.000000
vn 0.000000 -1.000000 0.000000
vn 0.000000 -1.000000 0.000000
vn 0.000000 -1.000000 0.000000
vn 0.000000 -1.000000 0.000000
vn 0.000000 -1.000000 0.000000
vn 0.000000 -1.000000 0.000000
vn 0.000000 -1.000000 0.000000
vn 0.000000 -1.000000 0.000000
vn 0.000000 -1.000000 0.000000
vn 0.000000 -1.000000 0.000000
vn 0.000000 -1.000000 0.000000
vn 0.000000 1.000000 0.000000
vn 0.000000 1.000000 0.000000
vn 0.000000 1.000000 0.000000
vn 0.000000 1.000000 0.000000
vn 0.000000 1.000000 0.000000
vn 0.000000 1.000000 0.000000
vn 0.000000 1.000000 0.000000
vn 0.000000 1.000000 0.000000
vn 0.000000 1.000000 0.000000
vn 0.000000 1.000000 0.000000
vn 0.000000 1.000000 0.000000
vn 0.000000 1.000000 0.000000
vn 0.000000 1.000000 0.000000
vn 0.000000 1.000000 0.000000
vn 0.000000 1.000000 0.000000
vn 0.000000 1.000000 0.000000
vn 0.000000 1.000000 0.000000
vn 0.000000 1.000000 0.000000
vn 0.000000 1.000000 0.000000
vn 0.000000 1.000000 0.000000
vn 0.000000 1.000000 0.000000
vn 0.000000 1.000000 0.000000
vn 0.000000 1.000000 0.000000
vn 0.000000 1.000000 0.000000
vn 0.000000 1.000000 0.000000
vn 0.000000 1.000000 0.000000
vn 0.000000 1.000000 0.000000
vn 0.000000 1.000000 0.000000
vn 0.000000 1.000000 0.000000
vn 0.000000 1.000000 0.000000
vn 0.000000 1.000000 0.000000
vn 0.000000 1.000000 0.000000
vn 0.000000 1.000000 0.000000
vn 0.000000 1.000000 0.000000
vn 0.000000 1.000000 0.000000
vn 0.000000 1.000000 0.000000
vn 0.000000 1.000000 -0.000001
vn 0.000000 1.000000 -0.000001
vn 0.000000 1.000000 0.000000
vn 0.000000 1.000000 0.000000
vn 0.000000 1.000000 0.000000
vn 0.000000 1.000000 0.000000
vn 0.000000 1.000000 0.000000
vn 0.000000 1.000000 0.000000
vn 0.000000 1.000000 0.000000
vn 0.000000 1.000000 0.000000
vn 0.000000 1.000000 0.000000
vn 0.000000 1.000000 0.000000
vn 0.000000 1.000000 0.000000
vn 0.000000 1.000000 0.000000
vn 0.000000 1.000000 0.000000
s 1
g pCylinder1
usemtl initialShadingGroup
f 1/51/1 2/52/2 52/103/3 51/102/4
f 2/52/2 3/53/5 53/104/6 52/103/3
f 3/53/5 4/54/7 54/105/8 53/104/6
f 4/54/7 5/55/9 55/106/10 54/105/8
f 5/55/9 6/56/11 56/107/12 55/106/10
f 6/56/11 7/57/13 57/108/14 56/107/12
f 7/57/13 8/58/15 58/109/16 57/108/14
f 8/58/15 9/59/17 59/110/18 58/109/16
f 9/59/17 10/60/19 60/111/20 59/110/18
f 10/60/19 11/61/21 61/112/22 60/111/20
f 11/61/21 12/62/23 62/113/24 61/112/22
f 12/62/23 13/63/25 63/114/26 62/113/24
f 13/63/25 14/64/27 64/115/28 63/114/26
f 14/64/27 15/65/29 65/116/30 64/115/28
f 15/65/29 16/66/31 66/117/32 65/116/30
f 16/66/31 17/67/33 67/118/34 66/117/32
f 17/67/33 18/68/35 68/119/36 67/118/34
f 18/68/35 19/69/37 69/120/38 68/119/36
f 19/69/37 20/70/39 70/121/40 69/120/38
f 20/70/39 21/71/41 71/122/42 70/121/40
f 21/71/41 22/72/43 72/123/44 71/122/42
f 22/72/43 23/73/45 73/124/46 72/123/44
f 23/73/45 24/74/47 74/125/48 73/124/46
f 24/74/47 25/75/49 75/126/50 74/125/48
f 25/75/49 26/76/51 76/127/52 75/126/50
f 26/76/51 27/77/53 77/128/54 76/127/52
f 27/77/53 28/78/55 78/129/56 77/128/54
f 28/78/55 29/79/57 79/130/58 78/129/56
f 29/79/57 30/80/59 80/131/60 79/130/58
f 30/80/59 31/81/61 81/132/62 80/131/60
f 31/81/61 32/82/63 82/133/64 81/132/62
f 32/82/63 33/83/65 83/134/66 82/133/64
f 33/83/65 34/84/67 84/135/68 83/134/66
f 34/84/67 35/85/69 85/136/70 84/135/68
f 35/85/69 36/86/71 86/137/72 85/136/70
f 36/86/71 37/87/73 87/138/74 86/137/72
f 37/87/73 38/88/75 88/139/76 87/138/74
f 38/88/75 39/89/77 89/140/78 88/139/76
f 39/89/77 40/90/79 90/141/80 89/140/78
f 40/90/79 41/91/81 91/142/82 90/141/80
f 41/91/81 42/92/83 92/143/84 91/142/82
f 42/92/83 43/93/85 93/144/86 92/143/84
f 43/93/85 44/94/87 94/145/88 93/144/86
f 44/94/87 45/95/89 95/146/90 94/145/88
f 45/95/89 46/96/91 96/147/92 95/146/90
f 46/96/91 47/97/93 97/148/94 96/147/92
f 47/97/93 48/98/95 98/149/96 97/148/94
f 48/98/95 49/99/97 99/150/98 98/149/96
f 49/99/97 50/100/99 100/151/100 99/150/98
f 50/100/99 1/101/1 51/152/4 100/151/100
s 2
f 2/2/101 1/1/102 101/203/103
f 3/3/104 2/2/101 101/203/103
f 4/4/105 3/3/104 101/203/103
f 5/5/106 4/4/105 101/203/103
f 6/6/107 5/5/106 101/203/103
f 7/7/108 6/6/107 101/203/103
f 8/8/109 7/7/108 101/203/103
f 9/9/110 8/8/109 101/203/103
f 10/10/111 9/9/110 101/203/103
f 11/11/112 10/10/111 101/203/103
f 12/12/113 11/11/112 101/203/103
f 13/13/114 12/12/113 101/203/103
f 14/14/115 13/13/114 101/203/103
f 15/15/116 14/14/115 101/203/103
f 16/16/117 15/15/116 101/203/103
f 17/17/118 16/16/117 101/203/103
f 18/18/119 17/17/118 101/203/103
f 19/19/120 18/18/119 101/203/103
f 20/20/121 19/19/120 101/203/103
f 21/21/122 20/20/121 101/203/103
f 22/22/123 21/21/122 101/203/103
f 23/23/124 22/22/123 101/203/103
f 24/24/125 23/23/124 101/203/103
f 25/25/126 24/24/125 101/203/103
f 26/26/127 25/25/126 101/203/103
f 27/27/128 26/26/127 101/203/103
f 28/28/129 27/27/128 101/203/103
f 29/29/130 28/28/129 101/203/103
f 30/30/131 29/29/130 101/203/103
f 31/31/132 30/30/131 101/203/103
f 32/32/133 31/31/132 101/203/103
f 33/33/134 32/32/133 101/203/103
f 34/34/135 33/33/134 101/203/103
f 35/35/136 34/34/135 101/203/103
f 36/36/137 35/35/136 101/203/103
f 37/37/138 36/36/137 101/203/103
f 38/38/139 37/37/138 101/203/103
f 39/39/140 38/38/139 101/203/103
f 40/40/141 39/39/140 101/203/103
f 41/41/142 40/40/141 101/203/103
f 42/42/143 41/41/142 101/203/103
f 43/43/144 42/42/143 101/203/103
f 44/44/145 43/43/144 101/203/103
f 45/45/146 44/44/145 101/203/103
f 46/46/147 45/45/146 101/203/103
f 47/47/148 46/46/147 101/203/103
f 48/48/149 47/47/148 101/203/103
f 49/49/150 48/48/149 101/203/103
f 50/50/151 49/49/150 101/203/103
f 1/1/102 50/50/151 101/203/103
s 3
f 51/201/152 52/200/153 102/204/154
f 52/200/153 53/199/155 102/204/154
f 53/199/155 54/198/156 102/204/154
f 54/198/156 55/197/157 102/204/154
f 55/197/157 56/196/158 102/204/154
f 56/196/158 57/195/159 102/204/154
f 57/195/159 58/194/160 102/204/154
f 58/194/160 59/193/161 102/204/154
f 59/193/161 60/192/162 102/204/154
f 60/192/162 61/191/163 102/204/154
f 61/191/163 62/190/164 102/204/154
f 62/190/164 63/189/165 102/204/154
f 63/189/165 64/188/166 102/204/154
f 64/188/166 65/187/167 102/204/154
f 65/187/167 66/186/168 102/204/154
f 66/186/168 67/185/169 102/204/154
f 67/185/169 68/184/170 102/204/154
f 68/184/170 69/183/171 102/204/154
f 69/183/171 70/182/172 102/204/154
f 70/182/172 71/181/173 102/204/154
f 71/181/173 72/180/174 102/204/154
f 72/180/174 73/179/175 102/204/154
f 73/179/175 74/178/176 102/204/154
f 74/178/176 75/177/177 102/204/154
f 75/177/177 76/176/178 102/204/154
f 76/176/178 77/175/179 102/204/154
f 77/175/179 78/174/180 102/204/154
f 78/174/180 79/173/181 102/204/154
f 79/173/181 80/172/182 102/204/154
f 80/172/182 81/171/183 102/204/154
f 81/171/183 82/170/184 102/204/154
f 82/170/184 83/169/185 102/204/154
f 83/169/185 84/168/186 102/204/154
f 84/168/186 85/167/187 102/204/154
f 85/167/187 86/166/188 102/204/154
f 86/166/188 87/165/189 102/204/154
f 87/165/189 88/164/190 102/204/154
f 88/164/190 89/163/191 102/204/154
f 89/163/191 90/162/192 102/204/154
f 90/162/192 91/161/193 102/204/154
f 91/161/193 92/160/194 102/204/154
f 92/160/194 93/159/195 102/204/154
f 93/159/195 94/158/196 102/204/154
f 94/158/196 95/157/197 102/204/154
f 95/157/197 96/156/198 102/204/154
f 96/156/198 97/155/199 102/204/154
f 97/155/199 98/154/200 102/204/154
f 98/154/200 99/153/201 102/204/154
f 99/153/201 100/202/202 102/204/154
f 100/202/202 51/201/152 102/204/154
